<?xml version="1.0" encoding="iso-8859-1"?>
<!-- Generator: Adobe Illustrator 16.0.0, SVG Export Plug-In . SVG Version: 6.00 Build 0)  -->
<!DOCTYPE svg PUBLIC "-//W3C//DTD SVG 1.1//EN" "http://www.w3.org/Graphics/SVG/1.1/DTD/svg11.dtd">
<svg version="1.1" id="Capa_1" xmlns="http://www.w3.org/2000/svg" xmlns:xlink="http://www.w3.org/1999/xlink" x="0px" y="0px"
	 width="110.276px" height="110.276px" viewBox="0 0 110.276 110.276" style="enable-background:new 0 0 110.276 110.276;"
	 xml:space="preserve">
<g>
	<g>
		<path id="path3460" d="M100.081,45.125c1.219,7.654-4.015,14.845-11.653,16.058c-7.665,1.209-14.85-4.01-16.065-11.669
			c-1.205-7.662,4.019-14.844,11.67-16.059C91.675,32.244,98.87,37.469,100.081,45.125z M81.171,93.195
			c-6.511,4.229-15.192,2.366-19.417-4.129c-4.214-6.501-2.381-15.183,4.134-19.411c6.489-4.225,15.191-2.377,19.407,4.124
			C89.515,80.275,87.661,88.971,81.171,93.195L81.171,93.195z M47.683,55.137c0-4.12,3.336-7.441,7.451-7.441
			c4.123,0,7.447,3.321,7.447,7.441c0,4.125-3.326,7.447-7.447,7.447C51.019,62.584,47.683,59.26,47.683,55.137z M46.144,91.854
			c-5.759,5.173-14.627,4.722-19.818-1.04c-5.192-5.767-4.73-14.638,1.029-19.823C33.13,65.805,42,66.27,47.183,72.022
			C52.369,77.789,51.899,86.663,46.144,91.854L46.144,91.854z M11.241,41.615c3.147-7.086,11.447-10.265,18.526-7.115
			c7.078,3.154,10.254,11.449,7.119,18.526c-3.152,7.087-11.459,10.265-18.539,7.117C11.272,56.981,8.084,48.688,11.241,41.615z
			 M55.136,10.587c7.759,0,14.041,6.283,14.041,14.028c0,7.754-6.282,14.041-14.041,14.041c-7.746,0-14.026-6.283-14.026-14.041
			C41.11,16.87,47.391,10.587,55.136,10.587z M55.136,0C24.689,0,0.001,24.686,0.001,55.144c0,30.447,24.69,55.132,55.135,55.132
			c30.446,0,55.139-24.686,55.139-55.132C110.278,24.686,85.583,0,55.136,0"/>
	</g>
</g>
<g>
</g>
<g>
</g>
<g>
</g>
<g>
</g>
<g>
</g>
<g>
</g>
<g>
</g>
<g>
</g>
<g>
</g>
<g>
</g>
<g>
</g>
<g>
</g>
<g>
</g>
<g>
</g>
<g>
</g>
</svg>
